<svg xmlns="http://www.w3.org/2000/svg" xmlns:xlink="http://www.w3.org/1999/xlink" width="600" zoomAndPan="magnify" viewBox="0 0 450 56.249996" height="75" preserveAspectRatio="xMidYMid meet" version="1.0"><defs><g/></defs><g fill="#ff1616" fill-opacity="1"><g transform="translate(13.969997, 52.820326)"><g><path d="M 15.34375 -24.6875 C 12.363281 -24.6875 10.007812 -23.691406 8.28125 -21.703125 C 6.550781 -19.722656 5.6875 -17.007812 5.6875 -13.5625 C 5.6875 -10.007812 6.519531 -7.265625 8.1875 -5.328125 C 9.851562 -3.390625 12.222656 -2.421875 15.296875 -2.421875 C 17.191406 -2.421875 19.351562 -2.765625 21.78125 -3.453125 L 21.78125 -0.6875 C 19.894531 0.0195312 17.570312 0.375 14.8125 0.375 C 10.820312 0.375 7.738281 -0.835938 5.5625 -3.265625 C 3.394531 -5.691406 2.3125 -9.132812 2.3125 -13.59375 C 2.3125 -16.382812 2.832031 -18.832031 3.875 -20.9375 C 4.925781 -23.039062 6.4375 -24.660156 8.40625 -25.796875 C 10.382812 -26.929688 12.707031 -27.5 15.375 -27.5 C 18.21875 -27.5 20.703125 -26.984375 22.828125 -25.953125 L 21.5 -23.234375 C 19.445312 -24.203125 17.394531 -24.6875 15.34375 -24.6875 Z M 15.34375 -24.6875 "/></g></g></g><g fill="#ff1616" fill-opacity="1"><g transform="translate(37.936068, 52.820326)"><g><path d="M 27.265625 -13.59375 C 27.265625 -9.25 26.164062 -5.832031 23.96875 -3.34375 C 21.78125 -0.863281 18.726562 0.375 14.8125 0.375 C 10.820312 0.375 7.738281 -0.84375 5.5625 -3.28125 C 3.394531 -5.726562 2.3125 -9.175781 2.3125 -13.625 C 2.3125 -18.039062 3.398438 -21.460938 5.578125 -23.890625 C 7.753906 -26.328125 10.847656 -27.546875 14.859375 -27.546875 C 18.753906 -27.546875 21.796875 -26.304688 23.984375 -23.828125 C 26.171875 -21.359375 27.265625 -17.945312 27.265625 -13.59375 Z M 5.65625 -13.59375 C 5.65625 -9.925781 6.4375 -7.140625 8 -5.234375 C 9.5625 -3.335938 11.832031 -2.390625 14.8125 -2.390625 C 17.820312 -2.390625 20.09375 -3.332031 21.625 -5.21875 C 23.15625 -7.113281 23.921875 -9.90625 23.921875 -13.59375 C 23.921875 -17.238281 23.15625 -20.003906 21.625 -21.890625 C 20.101562 -23.773438 17.847656 -24.71875 14.859375 -24.71875 C 11.847656 -24.71875 9.5625 -23.769531 8 -21.875 C 6.4375 -19.976562 5.65625 -17.21875 5.65625 -13.59375 Z M 5.65625 -13.59375 "/></g></g></g><g fill="#ff1616" fill-opacity="1"><g transform="translate(67.522671, 52.820326)"><g><path d="M 24.90625 0 L 21.3125 0 L 6.484375 -22.75 L 6.34375 -22.75 C 6.539062 -20.082031 6.640625 -17.632812 6.640625 -15.40625 L 6.640625 0 L 3.734375 0 L 3.734375 -27.109375 L 7.28125 -27.109375 L 22.078125 -4.453125 L 22.21875 -4.453125 C 22.195312 -4.785156 22.140625 -5.859375 22.046875 -7.671875 C 21.960938 -9.484375 21.929688 -10.78125 21.953125 -11.5625 L 21.953125 -27.109375 L 24.90625 -27.109375 Z M 24.90625 0 "/></g></g></g><g fill="#ff1616" fill-opacity="1"><g transform="translate(96.163239, 52.820326)"><g><path d="M 12.078125 0 L 8.921875 0 L 8.921875 -24.3125 L 0.328125 -24.3125 L 0.328125 -27.109375 L 20.65625 -27.109375 L 20.65625 -24.3125 L 12.078125 -24.3125 Z M 12.078125 0 "/></g></g></g><g fill="#ff1616" fill-opacity="1"><g transform="translate(117.179931, 52.820326)"><g><path d="M 18.84375 0 L 3.734375 0 L 3.734375 -27.109375 L 18.84375 -27.109375 L 18.84375 -24.3125 L 6.875 -24.3125 L 6.875 -15.578125 L 18.125 -15.578125 L 18.125 -12.796875 L 6.875 -12.796875 L 6.875 -2.8125 L 18.84375 -2.8125 Z M 18.84375 0 "/></g></g></g><g fill="#ff1616" fill-opacity="1"><g transform="translate(138.307921, 52.820326)"><g><path d="M 24.203125 -27.109375 L 24.203125 -9.5625 C 24.203125 -6.476562 23.269531 -4.050781 21.40625 -2.28125 C 19.539062 -0.507812 16.972656 0.375 13.703125 0.375 C 10.441406 0.375 7.914062 -0.515625 6.125 -2.296875 C 4.34375 -4.078125 3.453125 -6.523438 3.453125 -9.640625 L 3.453125 -27.109375 L 6.609375 -27.109375 L 6.609375 -9.421875 C 6.609375 -7.160156 7.222656 -5.421875 8.453125 -4.203125 C 9.691406 -2.992188 11.507812 -2.390625 13.90625 -2.390625 C 16.195312 -2.390625 17.957031 -3 19.1875 -4.21875 C 20.425781 -5.4375 21.046875 -7.179688 21.046875 -9.453125 L 21.046875 -27.109375 Z M 11.125 -29.75 C 11.71875 -30.507812 12.359375 -31.429688 13.046875 -32.515625 C 13.734375 -33.609375 14.273438 -34.554688 14.671875 -35.359375 L 18.421875 -35.359375 L 18.421875 -34.96875 C 17.878906 -34.164062 17.066406 -33.175781 15.984375 -32 C 14.910156 -30.832031 13.976562 -29.925781 13.1875 -29.28125 L 11.125 -29.28125 Z M 11.125 -29.75 "/></g></g></g><g fill="#ff1616" fill-opacity="1"><g transform="translate(165.965367, 52.820326)"><g><path d="M 25.375 -13.8125 C 25.375 -9.34375 24.15625 -5.921875 21.71875 -3.546875 C 19.289062 -1.179688 15.796875 0 11.234375 0 L 3.734375 0 L 3.734375 -27.109375 L 12.03125 -27.109375 C 16.25 -27.109375 19.523438 -25.941406 21.859375 -23.609375 C 24.203125 -21.273438 25.375 -18.007812 25.375 -13.8125 Z M 22.03125 -13.703125 C 22.03125 -17.242188 21.140625 -19.910156 19.359375 -21.703125 C 17.585938 -23.492188 14.957031 -24.390625 11.46875 -24.390625 L 6.875 -24.390625 L 6.875 -2.71875 L 10.71875 -2.71875 C 14.476562 -2.71875 17.300781 -3.640625 19.1875 -5.484375 C 21.082031 -7.335938 22.03125 -10.078125 22.03125 -13.703125 Z M 22.03125 -13.703125 "/></g></g></g><g fill="#ff1616" fill-opacity="1"><g transform="translate(193.659911, 52.820326)"><g><path d="M 27.265625 -13.59375 C 27.265625 -9.25 26.164062 -5.832031 23.96875 -3.34375 C 21.78125 -0.863281 18.726562 0.375 14.8125 0.375 C 10.820312 0.375 7.738281 -0.84375 5.5625 -3.28125 C 3.394531 -5.726562 2.3125 -9.175781 2.3125 -13.625 C 2.3125 -18.039062 3.398438 -21.460938 5.578125 -23.890625 C 7.753906 -26.328125 10.847656 -27.546875 14.859375 -27.546875 C 18.753906 -27.546875 21.796875 -26.304688 23.984375 -23.828125 C 26.171875 -21.359375 27.265625 -17.945312 27.265625 -13.59375 Z M 5.65625 -13.59375 C 5.65625 -9.925781 6.4375 -7.140625 8 -5.234375 C 9.5625 -3.335938 11.832031 -2.390625 14.8125 -2.390625 C 17.820312 -2.390625 20.09375 -3.332031 21.625 -5.21875 C 23.15625 -7.113281 23.921875 -9.90625 23.921875 -13.59375 C 23.921875 -17.238281 23.15625 -20.003906 21.625 -21.890625 C 20.101562 -23.773438 17.847656 -24.71875 14.859375 -24.71875 C 11.847656 -24.71875 9.5625 -23.769531 8 -21.875 C 6.4375 -19.976562 5.65625 -17.21875 5.65625 -13.59375 Z M 5.65625 -13.59375 "/></g></g></g><g fill="#ff1616" fill-opacity="1"><g transform="translate(223.246514, 52.820326)"><g/></g></g><g fill="#ff1616" fill-opacity="1"><g transform="translate(233.114896, 52.820326)"><g><path d="M 6.875 -11.28125 L 6.875 0 L 3.734375 0 L 3.734375 -27.109375 L 11.171875 -27.109375 C 14.492188 -27.109375 16.945312 -26.472656 18.53125 -25.203125 C 20.125 -23.929688 20.921875 -22.015625 20.921875 -19.453125 C 20.921875 -15.867188 19.101562 -13.445312 15.46875 -12.1875 L 22.828125 0 L 19.109375 0 L 12.53125 -11.28125 Z M 6.875 -13.984375 L 11.203125 -13.984375 C 13.429688 -13.984375 15.0625 -14.425781 16.09375 -15.3125 C 17.132812 -16.195312 17.65625 -17.519531 17.65625 -19.28125 C 17.65625 -21.082031 17.125 -22.378906 16.0625 -23.171875 C 15.007812 -23.960938 13.316406 -24.359375 10.984375 -24.359375 L 6.875 -24.359375 Z M 6.875 -13.984375 "/></g></g></g><g fill="#ff1616" fill-opacity="1"><g transform="translate(256.59869, 52.820326)"><g><path d="M 18.84375 0 L 3.734375 0 L 3.734375 -27.109375 L 18.84375 -27.109375 L 18.84375 -24.3125 L 6.875 -24.3125 L 6.875 -15.578125 L 18.125 -15.578125 L 18.125 -12.796875 L 6.875 -12.796875 L 6.875 -2.8125 L 18.84375 -2.8125 Z M 18.84375 0 "/></g></g></g><g fill="#ff1616" fill-opacity="1"><g transform="translate(277.72668, 52.820326)"><g><path d="M 19.03125 -7.21875 C 19.03125 -4.832031 18.164062 -2.96875 16.4375 -1.625 C 14.707031 -0.289062 12.359375 0.375 9.390625 0.375 C 6.171875 0.375 3.695312 -0.0390625 1.96875 -0.875 L 1.96875 -3.90625 C 3.082031 -3.4375 4.289062 -3.066406 5.59375 -2.796875 C 6.90625 -2.523438 8.207031 -2.390625 9.5 -2.390625 C 11.601562 -2.390625 13.1875 -2.785156 14.25 -3.578125 C 15.3125 -4.378906 15.84375 -5.492188 15.84375 -6.921875 C 15.84375 -7.859375 15.648438 -8.625 15.265625 -9.21875 C 14.890625 -9.820312 14.257812 -10.375 13.375 -10.875 C 12.5 -11.382812 11.15625 -11.960938 9.34375 -12.609375 C 6.820312 -13.515625 5.019531 -14.582031 3.9375 -15.8125 C 2.851562 -17.050781 2.3125 -18.664062 2.3125 -20.65625 C 2.3125 -22.75 3.097656 -24.410156 4.671875 -25.640625 C 6.242188 -26.878906 8.320312 -27.5 10.90625 -27.5 C 13.601562 -27.5 16.082031 -27.003906 18.34375 -26.015625 L 17.359375 -23.28125 C 15.117188 -24.21875 12.941406 -24.6875 10.828125 -24.6875 C 9.160156 -24.6875 7.859375 -24.328125 6.921875 -23.609375 C 5.984375 -22.890625 5.515625 -21.894531 5.515625 -20.625 C 5.515625 -19.6875 5.6875 -18.914062 6.03125 -18.3125 C 6.375 -17.71875 6.957031 -17.164062 7.78125 -16.65625 C 8.601562 -16.15625 9.863281 -15.601562 11.5625 -15 C 14.40625 -13.988281 16.359375 -12.898438 17.421875 -11.734375 C 18.492188 -10.578125 19.03125 -9.070312 19.03125 -7.21875 Z M 19.03125 -7.21875 "/></g></g></g><g fill="#ff1616" fill-opacity="1"><g transform="translate(298.576421, 52.820326)"><g><path d="M 18.84375 0 L 3.734375 0 L 3.734375 -27.109375 L 18.84375 -27.109375 L 18.84375 -24.3125 L 6.875 -24.3125 L 6.875 -15.578125 L 18.125 -15.578125 L 18.125 -12.796875 L 6.875 -12.796875 L 6.875 -2.8125 L 18.84375 -2.8125 Z M 18.84375 0 "/></g></g></g><g fill="#ff1616" fill-opacity="1"><g transform="translate(319.70441, 52.820326)"><g><path d="M 6.875 -11.28125 L 6.875 0 L 3.734375 0 L 3.734375 -27.109375 L 11.171875 -27.109375 C 14.492188 -27.109375 16.945312 -26.472656 18.53125 -25.203125 C 20.125 -23.929688 20.921875 -22.015625 20.921875 -19.453125 C 20.921875 -15.867188 19.101562 -13.445312 15.46875 -12.1875 L 22.828125 0 L 19.109375 0 L 12.53125 -11.28125 Z M 6.875 -13.984375 L 11.203125 -13.984375 C 13.429688 -13.984375 15.0625 -14.425781 16.09375 -15.3125 C 17.132812 -16.195312 17.65625 -17.519531 17.65625 -19.28125 C 17.65625 -21.082031 17.125 -22.378906 16.0625 -23.171875 C 15.007812 -23.960938 13.316406 -24.359375 10.984375 -24.359375 L 6.875 -24.359375 Z M 6.875 -13.984375 "/></g></g></g><g fill="#ff1616" fill-opacity="1"><g transform="translate(343.188204, 52.820326)"><g><path d="M 19.21875 -27.109375 L 22.609375 -27.109375 L 12.828125 0 L 9.71875 0 L 0 -27.109375 L 3.34375 -27.109375 L 9.5625 -9.5625 C 10.28125 -7.550781 10.851562 -5.59375 11.28125 -3.6875 C 11.71875 -5.695312 12.296875 -7.695312 13.015625 -9.6875 Z M 19.21875 -27.109375 "/></g></g></g><g fill="#ff1616" fill-opacity="1"><g transform="translate(365.800161, 52.820326)"><g><path d="M 20.765625 0 L 17.390625 -8.625 L 6.53125 -8.625 L 3.1875 0 L 0 0 L 10.71875 -27.234375 L 13.375 -27.234375 L 24.03125 0 Z M 16.421875 -11.46875 L 13.265625 -19.859375 C 12.859375 -20.921875 12.4375 -22.226562 12 -23.78125 C 11.726562 -22.59375 11.335938 -21.285156 10.828125 -19.859375 L 7.640625 -11.46875 Z M 16.421875 -11.46875 "/></g></g></g><g fill="#ff1616" fill-opacity="1"><g transform="translate(389.840431, 52.820326)"><g><path d="M 25.375 -13.8125 C 25.375 -9.34375 24.15625 -5.921875 21.71875 -3.546875 C 19.289062 -1.179688 15.796875 0 11.234375 0 L 3.734375 0 L 3.734375 -27.109375 L 12.03125 -27.109375 C 16.25 -27.109375 19.523438 -25.941406 21.859375 -23.609375 C 24.203125 -21.273438 25.375 -18.007812 25.375 -13.8125 Z M 22.03125 -13.703125 C 22.03125 -17.242188 21.140625 -19.910156 19.359375 -21.703125 C 17.585938 -23.492188 14.957031 -24.390625 11.46875 -24.390625 L 6.875 -24.390625 L 6.875 -2.71875 L 10.71875 -2.71875 C 14.476562 -2.71875 17.300781 -3.640625 19.1875 -5.484375 C 21.082031 -7.335938 22.03125 -10.078125 22.03125 -13.703125 Z M 22.03125 -13.703125 "/></g></g></g><g fill="#ff1616" fill-opacity="1"><g transform="translate(417.534965, 52.820326)"><g><path d="M 27.265625 -13.59375 C 27.265625 -9.25 26.164062 -5.832031 23.96875 -3.34375 C 21.78125 -0.863281 18.726562 0.375 14.8125 0.375 C 10.820312 0.375 7.738281 -0.84375 5.5625 -3.28125 C 3.394531 -5.726562 2.3125 -9.175781 2.3125 -13.625 C 2.3125 -18.039062 3.398438 -21.460938 5.578125 -23.890625 C 7.753906 -26.328125 10.847656 -27.546875 14.859375 -27.546875 C 18.753906 -27.546875 21.796875 -26.304688 23.984375 -23.828125 C 26.171875 -21.359375 27.265625 -17.945312 27.265625 -13.59375 Z M 5.65625 -13.59375 C 5.65625 -9.925781 6.4375 -7.140625 8 -5.234375 C 9.5625 -3.335938 11.832031 -2.390625 14.8125 -2.390625 C 17.820312 -2.390625 20.09375 -3.332031 21.625 -5.21875 C 23.15625 -7.113281 23.921875 -9.90625 23.921875 -13.59375 C 23.921875 -17.238281 23.15625 -20.003906 21.625 -21.890625 C 20.101562 -23.773438 17.847656 -24.71875 14.859375 -24.71875 C 11.847656 -24.71875 9.5625 -23.769531 8 -21.875 C 6.4375 -19.976562 5.65625 -17.21875 5.65625 -13.59375 Z M 5.65625 -13.59375 "/></g></g></g></svg>